<svg xmlns="http://www.w3.org/2000/svg" id="Layer_1" version="1.1" viewBox="0 0 255.7 35"><defs><style>.st0{fill:#df7a5f}</style></defs><path d="M55.1 5.5h-1.9l-9 23.6h2.2l3-7.8H59l3 7.8h2.2L55.3 5.8v-.3Zm3 13.7h-8l4-10.5zm7.7-15.4h2V29h-2zM87.9 23h-2.1v.3c-1.1 2.8-3.2 4.2-6.3 4.2s-6.8-2.9-7-6.8h15.6v-.4c0-2.4-1-4.9-2.7-6.7-1.6-1.7-3.8-2.6-6.1-2.6-4.9 0-8.8 4.2-8.8 9.3s4 9.2 9 9.2 7-2.1 8.3-5.9l.2-.5Zm-8.6-10c3.2 0 5.9 2.3 6.6 5.6H72.7c.7-3.3 3.4-5.6 6.6-5.6" class="st0"/><path d="M102.8 11.3h-2.5l-5 6.9-4.9-6.9h-2.5l6.2 8.6-6.6 9.1H90l5.3-7.4 5.4 7.4h2.5l-6.6-9.1zm28.3-5.8h-2.9l-11.9 12v-12h-2V29h2v-8.6l4.2-4.2 9.3 12.8h2.5L122 14.7z" class="st0"/><path d="M146.9 14.4c-1.6-2.2-4.1-3.5-6.8-3.5-4.9 0-8.8 4.2-8.8 9.3s4 9.2 8.8 9.2 5.2-1.3 6.8-3.4v3.1h2V11.3h-2zm-6.8 13c-3.7 0-6.8-3.2-6.8-7.2s3.1-7.3 6.8-7.3 6.8 3.3 6.8 7.3-3 7.2-6.8 7.2m26.9-13c-1.6-2.2-4.1-3.5-6.8-3.5-4.9 0-8.8 4.2-8.8 9.3s4 9.2 8.8 9.2 5.2-1.3 6.8-3.4v3.1h2V3.8h-2zm-6.8 13c-3.7 0-6.8-3.2-6.8-7.2s3-7.3 6.8-7.3 6.8 3.3 6.8 7.3-3 7.2-6.8 7.2m20.1-16.5c-4.9 0-8.8 4.2-8.8 9.3s4 9.2 9 9.2 7-2.1 8.3-5.9l.2-.5h-2.1v.3c-1.1 2.8-3.2 4.2-6.3 4.2s-6.8-2.9-7-6.8h15.6v-.4c0-2.4-1-4.9-2.7-6.7-1.6-1.7-3.8-2.6-6.1-2.6Zm-6.6 7.7c.7-3.3 3.4-5.6 6.6-5.6s5.9 2.3 6.6 5.6zm36.3-7.7c-2.5 0-4.6 1.2-5.7 3.2-1.2-2-3.4-3.2-5.9-3.2s-3.6.7-4.8 1.9v-1.5h-2V29h2V17.7c0-2.8 2-4.8 4.8-4.8s4.8 2 4.8 4.8V29h2V17.7c0-2.8 2-4.8 4.8-4.8s4.8 2 4.8 4.8V29h2V17.7c0-4-2.9-6.8-6.8-6.8m24.7 3.5c-1.6-2.2-4.1-3.5-6.8-3.5-4.9 0-8.8 4.2-8.8 9.3s4 9.2 8.8 9.2 5.2-1.3 6.8-3.4v3.1h2V11.3h-2zm-6.8 13c-3.7 0-6.8-3.2-6.8-7.2s3-7.3 6.8-7.3 6.8 3.3 6.8 7.3-3 7.2-6.8 7.2m20.5-16.5c-2.3 0-4.3.9-5.7 2.4v-2h-2V29h2V18.4c0-3.1 2.4-5.5 5.7-5.5s5.3 2 5.3 5.5V29h2V18.4c0-4.6-2.8-7.5-7.3-7.5M19.9 35c3.3-.4 6.3-1.7 8.7-3.7l-8.7-8.7zm.9-17.6 10.9 10.9c2.3-3 3.6-6.7 3.6-10.7s-1.4-7.9-3.8-10.9L20.7 17.5Zm-5.3-2.1V3.6L7.8 15.3zM0 17.5v1.7L12.1.8C5.1 3.1 0 9.7 0 17.5m1.6 7.4c2.5 5.4 7.7 9.4 13.9 10.2V19.8H5zM19.9 0v12.1l8.5-8.6C26 1.6 23 .4 19.8 0Z" class="st0"/></svg>