<svg xmlns="http://www.w3.org/2000/svg" viewBox="0 0 52.3 19.1"><path d="M1.6 6.1.5 9H0L3.2.6h.5l3.2 8.3h-.5L5.3 6H1.6Zm1.8-4.9L1.7 5.6h3.4zm4.9 7.7h-.4V0h.4zM10 5.8c0 1.6 1.2 2.8 2.7 2.8s2.1-.8 2.4-1.6h.5c-.4 1.3-1.4 2.1-2.9 2.1S9.5 7.7 9.5 5.9s1.4-3.3 3.1-3.3 3.1 1.7 3.1 3.2zm5.2-.4c-.2-1.3-1.3-2.3-2.6-2.3s-2.4 1-2.6 2.3zm3.3.7-2 2.8h-.6l2.3-3.2-2.2-3h.6l1.9 2.6 1.9-2.6h.6l-2.2 3 2.3 3.2h-.6zM1.4 15.8v3.1H1v-8.3h.4v4.6L6 10.6h.6l-3.2 3.2 3.7 5.1h-.6l-3.4-4.8zm11.9 3.1h-.4v-1.5c-.5 1-1.5 1.6-2.6 1.6-1.7 0-3.1-1.4-3.1-3.2s1.4-3.3 3.1-3.3 2.1.7 2.6 1.7v-1.5h.4zM10.2 13c-1.5 0-2.6 1.3-2.6 2.8s1.2 2.8 2.6 2.8 2.6-1.2 2.6-2.8-1.2-2.8-2.6-2.8m10.4 5.9h-.4v-1.5c-.5 1-1.5 1.6-2.6 1.6-1.7 0-3.1-1.4-3.1-3.2s1.4-3.3 3.1-3.3 2.1.7 2.6 1.7V10h.4zm-3-5.9c-1.5 0-2.6 1.3-2.6 2.8s1.2 2.8 2.6 2.8 2.6-1.2 2.6-2.8S19 13 17.6 13m4.7 2.8c0 1.6 1.2 2.8 2.7 2.8s2.1-.8 2.4-1.6h.5c-.4 1.3-1.4 2.1-2.9 2.1s-3.2-1.4-3.2-3.2 1.4-3.3 3.1-3.3 3.1 1.7 3.1 3.2zm5.2-.4c-.2-1.3-1.3-2.3-2.6-2.3s-2.4 1-2.6 2.3zm10.6 3.5h-.4v-4c0-1.1-.8-1.9-1.9-1.9s-1.9.8-1.9 1.9v4h-.4v-4c0-1.1-.8-1.9-1.9-1.9s-1.9.8-1.9 1.9v4h-.4v-6.2h.4v.8c.4-.6 1.1-1 1.9-1s1.8.5 2.2 1.4c.3-.8 1.1-1.4 2.1-1.4s2.4 1 2.4 2.4v4Zm7.3 0H45v-1.5c-.5 1-1.5 1.6-2.6 1.6-1.7 0-3.1-1.4-3.1-3.2s1.4-3.3 3.1-3.3 2.1.7 2.6 1.7v-1.5h.4zM42.3 13c-1.5 0-2.6 1.3-2.6 2.8s1.2 2.8 2.6 2.8 2.6-1.2 2.6-2.8-1.2-2.8-2.6-2.8m10 5.9h-.4v-3.7c0-1.4-.7-2.2-2.1-2.2s-2.2.9-2.2 2.2v3.7h-.4v-6.2h.4v1c.4-.7 1.2-1.2 2.2-1.2 1.6 0 2.5 1 2.5 2.6v3.7Z" style="fill:#e07a5f"/></svg>