<svg xmlns="http://www.w3.org/2000/svg" viewBox="0 0 318.8 36.1"><g style="opacity:.3"><path d="M12 35.5C5.1 35.5 0 30 0 23.1s5.2-12.8 12.6-12.8 12.6 5.8 12.6 13v12.2h-6.3V23.3c0-3.8-2.8-6.9-6.3-6.9s-6.3 3-6.3 6.7 2.8 6.3 6.4 6.3h3.6v6.1h-4.4ZM30.4 0h6.3v25.2c0 3.5 1.6 4.7 4.7 4.5v5.7c-7.2.8-11-3.5-11-10.3zM62 20.4c-.9-2.8-3.3-4.4-6.1-4.4s-6.4 3.2-6.4 7.3 2.9 7.1 6.4 7.1 4.2-.8 5.3-2.7h6.6c-1.4 5-5.8 8.4-11.8 8.4s-12.6-5.8-12.6-12.8 5.7-13 12.6-13 13.4 5.5 12.3 15.4H52.8v-5.3zM92.8 31v4.5h-6.3v-4.8c0-2.8-1.7-4.7-4.2-4.7s-4.2 1.9-4.2 4.7v4.8h-6.3V31c0-3.4 1.1-6.1 3.2-7.8-2-1.8-3.2-4.4-3.2-7.8V11h6.3v4.8c0 2.8 1.7 4.7 4.2 4.7s4.2-1.9 4.2-4.7V11h6.3v4.4c0 3.3-1.3 6-3.4 7.8 2.1 1.8 3.4 4.5 3.4 7.8m26.5-31v35.5H113V0zm15.1 30.5v5h-6.3v-4c0-2.7-1.5-5.3-5.3-5.3h-1v-6.1h1c3.8 0 5.3-2.6 5.3-5.3v-3.9h6.3v5c0 3.2-1.5 5.9-4.2 7.3 2.7 1.4 4.2 4.1 4.2 7.3m15.3 5c-6.9 0-12-5.5-12-12.4s5.2-12.8 12.6-12.8 12.6 5.8 12.6 13v12.2h-6.3V23.3c0-3.8-2.8-6.9-6.3-6.9s-6.3 3-6.3 6.7 2.8 6.3 6.4 6.3h3.6v6.1h-4.4ZM183.5 17h-3.6c-3.6 0-6.4 2.7-6.4 6.3s2.8 6.6 6.3 6.6 6.3-3.1 6.3-6.8V0h6.3v23.1c0 7.1-5.2 12.9-12.6 12.9s-12.6-5.8-12.6-12.7 5.2-12.4 12-12.4h4.4V17Zm30.8 3.4c-.9-2.8-3.3-4.4-6.1-4.4s-6.4 3.2-6.4 7.3 2.9 7.1 6.4 7.1 4.2-.8 5.3-2.7h6.6c-1.4 5-5.8 8.4-11.8 8.4s-12.6-5.8-12.6-12.8 5.7-13 12.6-13 13.4 5.5 12.3 15.4h-15.5v-5.3zm48 15.1H256V21.1c0-1.4-.5-4.7-4.6-4.7s-4.8 1.9-4.8 4.7v14.4h-6.3V21.1c0-1.4-.4-4.7-4.6-4.7s-4.8 1.9-4.8 4.7v14.4h-6.3V21.3c0-6.3 4.3-11 11.1-11s6.1 1.3 7.8 3.5c1.9-2.1 4.6-3.5 7.8-3.5 6.9 0 10.9 4.5 10.9 11v14.2Zm16.2 0c-6.9 0-12-5.5-12-12.4s5.2-12.8 12.6-12.8 12.6 5.8 12.6 13v12.2h-6.3V23.3c0-3.8-2.8-6.9-6.3-6.9s-6.3 3-6.3 6.7 2.8 6.3 6.4 6.3h3.6v6.1h-4.4Zm29.4-25.2c6.9 0 10.9 4.5 10.9 11v14.2h-6.3V21.1c0-1.4-.5-4.7-4.6-4.7s-4.8 1.9-4.8 4.7v14.4h-6.3V21.3c0-6.3 4.4-11 11.1-11" style="fill:#fff"/></g></svg>