<svg xmlns="http://www.w3.org/2000/svg" viewBox="0 0 53.3 19.7"><path d="M2.1 6.4 1 9.3H.5L3.7.9h.5l3.2 8.3h-.5L5.8 6.3H2.1Zm1.8-4.9L2.2 5.9h3.4zm4.9 7.7h-.4V.7h.4zm1.7-3.1c0 1.6 1.2 2.8 2.7 2.8s2.1-.8 2.4-1.6h.5c-.4 1.3-1.4 2.1-2.9 2.1S10 8 10 6.2s1.4-3.3 3.1-3.3 3.1 1.7 3.1 3.2zm5.2-.4c-.2-1.3-1.3-2.3-2.6-2.3s-2.4 1-2.6 2.3zm3.3.7-2 2.8h-.6L18.7 6l-2.2-3h.6L19 5.6 20.9 3h.6l-2.2 3 2.3 3.2H21zM1.9 16.1v3.1h-.4v-8.3h.4v4.6l4.6-4.6h.6l-3.2 3.2 3.7 5.1H7l-3.4-4.8zm11.9 3.1h-.4v-1.5c-.5 1-1.5 1.6-2.6 1.6-1.7 0-3.1-1.4-3.1-3.2s1.4-3.3 3.1-3.3 2.1.7 2.6 1.7V13h.4zm-3.1-5.9c-1.5 0-2.6 1.3-2.6 2.8s1.2 2.8 2.6 2.8 2.6-1.2 2.6-2.8-1.2-2.8-2.6-2.8m10.4 5.9h-.4v-1.5c-.5 1-1.5 1.6-2.6 1.6-1.7 0-3.1-1.4-3.1-3.2s1.4-3.3 3.1-3.3 2.1.7 2.6 1.7v-4.1h.4zm-3-5.9c-1.5 0-2.6 1.3-2.6 2.8s1.2 2.8 2.6 2.8 2.6-1.2 2.6-2.8-1.2-2.8-2.6-2.8m4.7 2.8c0 1.6 1.2 2.8 2.7 2.8s2.1-.8 2.4-1.6h.5c-.4 1.3-1.4 2.1-2.9 2.1s-3.2-1.4-3.2-3.2 1.4-3.3 3.1-3.3 3.1 1.7 3.1 3.2zm5.2-.4c-.2-1.3-1.3-2.3-2.6-2.3s-2.4 1-2.6 2.3zm10.6 3.5h-.4v-4c0-1.1-.8-1.9-1.9-1.9s-1.9.8-1.9 1.9v4H34v-4c0-1.1-.8-1.9-1.9-1.9s-1.9.8-1.9 1.9v4h-.4V13h.4v.8c.4-.6 1.1-1 1.9-1s1.8.5 2.2 1.4c.3-.8 1.1-1.4 2.1-1.4s2.4 1 2.4 2.4v4zm7.3 0h-.4v-1.5c-.5 1-1.5 1.6-2.6 1.6-1.7 0-3.1-1.4-3.1-3.2s1.4-3.3 3.1-3.3 2.1.7 2.6 1.7V13h.4zm-3.1-5.9c-1.5 0-2.6 1.3-2.6 2.8s1.2 2.8 2.6 2.8 2.6-1.2 2.6-2.8-1.2-2.8-2.6-2.8m10 5.9h-.4v-3.7c0-1.4-.7-2.2-2.1-2.2s-2.2.9-2.2 2.2v3.7h-.4V13h.4v1c.4-.7 1.2-1.2 2.2-1.2 1.6 0 2.5 1 2.5 2.6v3.7Z" style="fill:#e07a5f;stroke:#e07a5f;stroke-miterlimit:10;stroke-width:.3px"/></svg>