<svg xmlns="http://www.w3.org/2000/svg" id="bg" version="1.1" viewBox="0 0 1200 900"><defs><clipPath id="clippath"><path d="M0 0h1200v900H0z" style="fill:none"/></clipPath><style>.st2{fill:#fff}</style></defs><g style="clip-path:url(#clippath)"><path d="M897.8 1065c-5.7 24.6-16 23.2-16 23.2-9.2 2.9-16.1-21.7-16.1-21.7l-89.4-426.1c141 47.8 248.7-13.1 248.7-13.1zm245-764.3c-22.4-85.6-118.9-134.3-215.6-109-64.2 16.8-112.3 62-130.9 115.5-.9.1-1.9.3-2.9.4-61.2 9.5-104.2 58.7-96.3 109.9s64 85 125.1 75.4c13.5-2.1 26.1-6.1 37.5-11.7 40.9 25.3 94.6 34.1 148.4 20 96.7-25.3 157-115.1 134.6-200.6h.1Z" style="opacity:.6;fill:#fff"/><path d="M820.1 431.2c-4.1-9.1-7.1-18.5-9.4-27.9h-.4l.2-.2c-9.1-38.1-4.8-76.8.6-103.1-2-.5-3.3-.7-3.3-.7h-.4c-10.2-2.1-20.2-3.2-29.6-3.2-15.8 0-28.8 3-39.2 7.1-23.2 81 6.2 136.4 6.2 136.4 12.9 29.4 31.7 52.2 49.9 69 5.1.4 10.1.7 15.1.7 25.3 0 49.6-5.6 72.2-16.6-45.6-26.1-62-61.5-62-61.5zm-15.4-198.9c12.2 0 22.9.9 31.4 2 43.9-67.1 129.2-79.1 129.2-79.1 105.6-17.8 132.8 48.1 132.8 48.1 18.8 31.4 12.5 66.9 12.5 66.9-7.3 51.2-64.9 56.4-64.9 56.4 108.7 14.7 134.9-65.8 134.9-65.8 19.8-80.5-64.8-118.1-64.8-118.1C1029 93.5 919.3 127 919.3 127 820 152.1 769.8 233.6 769.8 233.6c-.3.5-.5.9-.8 1.3 12.6-1.9 24.6-2.6 35.6-2.6Zm369.7 114.2c15.7 79.4-35.5 122.3-35.5 122.3C1073 532.6 983.2 520 983.2 520c-10.8-.5-20.9-1.5-30.4-3-18.3 20.4-38.2 34-54.5 42.8-2 1.1-3.8 2-5.7 2.9 100 29.7 186.9-1.9 186.9-1.9 93.1-28.2 112.9-103.5 112.9-103.5 16.7-58.5-17.8-110.8-17.8-110.8z" class="st2"/><path d="M845.2 396.7s83.5 9.4 98.2-61.7c0 0 7.3-64.8-88.9-86.7 0 0-123.3-33.4-207 64.8 0 0-77.3 85.8 5.3 203.9 0 0 58.5 79.4 190.2 52.3 0 0 89.9-14.7 131.7-104.5 0 0 35.6-68 22-129.6 0 0-11.5 82.6-54.4 125.5 0 0-57.5 71.1-157.8 57.5 0 0-83.7-4.2-102.5-86.8 0 0-16.8-72.1 14.6-109.8 0 0 33.4-49.1 112.9-32.4 0 0 72.1 12.6 67.9 57.5 0 0 5.3 30.3-32.3 50.2v-.2Z" class="st2"/><path d="M911.4 630.7s-108.6 4.2-216-51.6l172.7 501.8s8.3 39 41.8 39c0 0 21 2.8 36.3-40.4 0 .1 170-485 170-485s-80.8 34.9-204.9 36.2Zm16.7 420.9c-7 23.7-19.5 22.3-19.5 22.3-11.2 2.8-19.6-20.9-19.6-20.9L777.6 643.2C949 689.3 1080 630.7 1080 630.7z" class="st2"/></g></svg>