<svg xmlns="http://www.w3.org/2000/svg" viewBox="0 0 1200 900"><path d="M1049.38 816.653a22 22 0 0 0-.376-.298 6.6 6.6 0 0 0-1.365-.827c-3.96-2.043-8.578-1.098-11.245 2.376-2.693 3.47-2.55 7.84.254 11.201.372.516.82.984 1.332 1.383l.68.525.436.345a.3.3 0 0 1 .048.035l.252.197q.67.52 1.415.845l.07.039c49.2 29.15 103.121 49.236 159.119 59.55v-18.238c-53.07-10.157-104.105-29.424-150.62-57.133M859.03 513.254c-1.736-4.616-6.912-6.954-11.556-5.228-4.623 1.748-6.961 6.93-5.216 11.549 31.127 82.447 85.826 152.95 158.182 203.886 59.641 41.985 127.806 68.007 199.56 76.532v-18.06c-68.031-8.436-132.644-33.281-189.245-73.127-69.407-48.858-121.875-116.482-151.726-195.552M980.709 555.055c-68.188-70.672-105.74-163.695-105.74-261.931 0-25.415 2.56-50.88 7.606-75.681a8.9 8.9 0 0 0-1.31-6.738c-1.321-1.998-3.343-3.358-5.745-3.844-4.804-.934-9.525 2.21-10.503 7.005a398.2 398.2 0 0 0-7.97 79.258c0 102.903 39.337 200.343 110.763 274.374 62.615 64.897 144.048 105.834 232.19 117.456v-18.106c-83.318-11.543-160.11-50.453-219.291-111.793" style="fill:#fff"/><path d="M1140.787 553.175a9 9 0 0 0 3.855.873 8.99 8.99 0 0 0 8.103-5.132 8.9 8.9 0 0 0 .333-6.854 8.9 8.9 0 0 0-4.617-5.08c-118.172-55.708-194.53-176.05-194.53-306.584 0-86.292 32.038-167.54 90.494-230.398h-23.968C965.8 64.336 936.01 145.018 936.01 230.398c0 137.44 80.393 264.143 204.777 322.777" style="fill:#fff"/><path d="M1118.963 408.424a9 9 0 0 0 6.576 2.873 8.96 8.96 0 0 0 8.96-8.961c0-2.26-.844-4.422-2.38-6.082-52.264-56.541-81.045-129.783-81.036-206.234.003-69.782 23.615-136.116 67.048-190.02H1095.5c-40.466 54.945-62.34 120.883-62.345 190.02-.007 80.97 30.463 158.534 85.808 218.404" style="fill:#fff"/></svg>