<svg xmlns="http://www.w3.org/2000/svg" height="auto" viewBox="0 0 1200 900"><path fill="#fff" d="M459.227 491.862c-5.265 0-8.947-1.477-12.316-4.94-1.186-1.221-3.31-1.31-4.6-.196l-.836.726a3.36 3.36 0 0 0-1.161 2.436 3.38 3.38 0 0 0 .994 2.49c4.94 4.874 10.618 7.144 17.862 7.144 10.732 0 17.398-5.138 17.398-13.409 0-10.536-9.93-12.547-17.18-14.016-9.501-1.924-9.9-3.156-9.9-5.76 0-1.854 0-6.199 9.57-6.199 4.086 0 6.236.855 8.52 3.385a3.37 3.37 0 0 0 2.462 1.11q.126 0 .255-.01a3.4 3.4 0 0 0 2.237-1.066l.727-.785c1.18-1.275 1.184-3.273.01-4.544-3.671-4-8.222-5.862-14.324-5.862-10.661 0-17.284 5.396-17.284 14.083 0 10.143 9.527 11.963 16.474 13.29 10.606 2.07 10.606 4.143 10.606 6.542 0 3.704-3.2 5.581-9.514 5.581M518.71 499.241h1.236c1.33 0 2.536-.787 3.072-2.01l2.672-6.131h21.836l2.666 6.136a3.35 3.35 0 0 0 3.07 2.005h1.236a3.33 3.33 0 0 0 2.794-1.502 3.33 3.33 0 0 0 .278-3.188l-17.361-39.89a3.35 3.35 0 0 0-3.072-2.014h-1.01c-1.34 0-2.549.794-3.072 2.01l-17.414 39.885a3.34 3.34 0 0 0 .265 3.186 3.35 3.35 0 0 0 2.803 1.513m25.411-15.97h-15.016l7.519-17.243zM636.62 452.704h-1.124a3.356 3.356 0 0 0-3.352 3.352v28.624l-24.527-30.76a3.33 3.33 0 0 0-2.628-1.273h-.842a3.356 3.356 0 0 0-3.352 3.353v39.889a3.356 3.356 0 0 0 3.352 3.352h1.124a3.356 3.356 0 0 0 3.351-3.352V467.77l24.078 30.2a3.33 3.33 0 0 0 2.628 1.271h1.291a3.356 3.356 0 0 0 3.352-3.352v-39.833a3.356 3.356 0 0 0-3.352-3.352M690.653 452.704h1.122a3.353 3.353 0 0 1 3.352 3.351v39.834a3.354 3.354 0 0 1-3.352 3.352h-1.123a3.353 3.353 0 0 1-3.352-3.351v-39.834a3.354 3.354 0 0 1 3.353-3.352M744.182 476.75h15.898a3.354 3.354 0 0 1 3.352 3.352v1.124a3.354 3.354 0 0 1-3.352 3.352h-15.898a3.353 3.353 0 0 1-3.352-3.351v-1.125a3.354 3.354 0 0 1 3.352-3.352M835.802 452.647h-31.687a3.356 3.356 0 0 0-3.351 3.353v1.123a3.356 3.356 0 0 0 3.351 3.353h11.93v35.413a3.356 3.356 0 0 0 3.352 3.352h1.123a3.356 3.356 0 0 0 3.352-3.352v-35.413h11.93a3.356 3.356 0 0 0 3.352-3.353V456a3.356 3.356 0 0 0-3.352-3.353M611.614 600.929c-35.896 36.577-83.882 56.72-135.12 56.72-34.097 0-67.532-9.176-96.604-26.494l-.152-.12a2.7 2.7 0 0 0-.552-.335c-1.602-.826-3.47-.444-4.548.96-1.089 1.404-1.032 3.172.103 4.53q.227.317.539.56l.275.212.195.154.102.08q.271.211.572.341l.029.016c30.196 17.89 64.786 27.345 100.04 27.345 53.201 0 103.024-20.916 140.285-58.885a3.6 3.6 0 0 0 1.046-2.543c0-.98-.384-1.899-1.094-2.598-1.43-1.392-3.732-1.366-5.116.057"/><path fill="#fff" d="M532.439 611.105a3.63 3.63 0 0 0 1.888-4.76 3.6 3.6 0 0 0-1.99-1.935 3.6 3.6 0 0 0-2.78.045c-21.378 9.27-44.11 13.97-67.56 13.97-35.23 0-69.025-10.68-97.728-30.886-28.07-19.76-49.29-47.108-61.362-79.086-.702-1.867-2.795-2.813-4.673-2.115a3.63 3.63 0 0 0-2.11 4.67c12.589 33.345 34.71 61.858 63.973 82.458 29.93 21.07 65.167 32.207 101.9 32.207 24.45 0 48.151-4.902 70.442-14.568"/><path fill="#fff" d="M455.663 579.156a3.617 3.617 0 0 0 3.85-3.485 3.63 3.63 0 0 0-3.482-3.753c-39.508-1.52-76.412-18.055-103.914-46.56-27.577-28.582-42.764-66.203-42.764-105.932 0-10.278 1.036-20.577 3.077-30.607a3.6 3.6 0 0 0-.53-2.725 3.6 3.6 0 0 0-2.324-1.555 3.64 3.64 0 0 0-4.247 2.833 161 161 0 0 0-3.224 32.054c0 41.617 15.91 81.024 44.796 110.964 28.808 29.858 67.465 47.178 108.762 48.766"/><path fill="#fff" d="M416.857 524.598c.483.23 1.021.353 1.56.353a3.64 3.64 0 0 0 3.276-2.076c.414-.876.462-1.86.135-2.772a3.6 3.6 0 0 0-1.867-2.054c-47.792-22.53-78.673-71.2-78.673-123.99 0-36.866 14.45-71.46 40.688-97.41 1.42-1.406 1.432-3.706.034-5.118a3.6 3.6 0 0 0-2.564-1.082h-.018c-.957 0-1.86.37-2.55 1.048-27.625 27.32-42.838 63.744-42.838 102.561 0 55.585 32.513 106.826 82.817 130.54"/><path fill="#fff" d="M408.03 466.057a3.623 3.623 0 0 0 5.321-4.922c-21.136-22.867-32.776-52.488-32.773-83.407.002-32.739 12.842-63.607 36.153-86.92 20.15-20.148 46.842-32.738 75.152-35.45a3.606 3.606 0 0 0 3.265-3.962c-.195-1.983-2-3.45-3.951-3.252-29.987 2.871-58.251 16.203-79.59 37.54-24.681 24.681-38.277 57.37-38.28 92.044-.002 32.747 12.321 64.115 34.704 88.329"/></svg>